<?xml version="1.0" encoding="utf-8"?>
<!-- Generator: Adobe Illustrator 16.0.3, SVG Export Plug-In . SVG Version: 6.00 Build 0)  -->
<!DOCTYPE svg PUBLIC "-//W3C//DTD SVG 1.1//EN" "http://www.w3.org/Graphics/SVG/1.1/DTD/svg11.dtd">
<svg version="1.1" id="Ebene_1" xmlns="http://www.w3.org/2000/svg" xmlns:xlink="http://www.w3.org/1999/xlink" x="0px" y="0px"
	 width="256px" height="256px" viewBox="0 0 256 256" enable-background="new 0 0 256 256" xml:space="preserve">
<path fill="#003C4D" d="M236.22,12l-76.01,76.01c-4.68-0.93-8.49-1.49-13.72-1.49c-34.99,0-54.13,11.03-56.89,61.81l0.4,9.25v0.64
	l-78,78V20h76l-1,30c25.88-33.28,45.62-38,89.99-38H236.22z"/>
<polygon fill="#003C4D" points="244,19.78 244,244 19.78,244 97.78,166 166,166 166,97.78 "/>
<path fill="#FFFFFF" d="M236.22,12l-76.01,76.01c-4.68-0.93-8.49-1.49-13.72-1.49c-34.99,0-54.13,11.03-56.89,61.81l0.4,9.25v0.64
	l-78,78V20h76l-1,30c25.88-33.28,45.62-38,89.99-38H236.22z"/>
<path fill="#003C4D" d="M24,33h52l-1,46c0,0,4.984-5.014,11-12c31-36,38-44,91-44h33l-52.635,52.83
	c-3.288-0.457-6.712-1.081-10.879-1.081c-46.39,0-66.47,21.036-69.301,73.052l-0.017,0.229l0.22,7.315L24,208.915V33z"/>
<polygon fill="#FFFFFF" points="244,19.78 244,244 19.78,244 97.78,166 166,166 166,97.78 "/>
<path fill="#003C4D" d="M0,0v256h256V0H0z M12,20h76l-1,30c25.88-33.28,45.62-38,89.99-38h59.229l-76.01,76.01
	c-4.68-0.93-8.49-1.49-13.72-1.49c-34.99,0-54.13,11.03-56.89,61.81l0.4,9.25v0.64l-78,78V20z M244,244H19.78l78-78H166V97.78l78-78
	V244z"/>
</svg>
